<svg width="64" height="64" viewBox="0 0 64 64" fill="none" xmlns="http://www.w3.org/2000/svg">
<rect width="64" height="64" rx="8" fill="#065F46"/>
<path fill-rule="evenodd" clip-rule="evenodd" d="M31.3539 23.2598C32.626 23.923 33.4953 25.2593 33.4953 26.8C33.4953 28.1955 32.7822 29.4233 31.7025 30.1351L31.3539 25.9941L31.0052 30.1351C29.9256 29.4233 29.2124 28.1955 29.2124 26.8C29.2124 25.2593 30.0818 23.923 31.3539 23.2598Z" fill="white"/>
<path fill-rule="evenodd" clip-rule="evenodd" d="M34.822 33.6894C35.2547 34.5894 35.1829 35.6935 34.5416 36.5469C33.9608 37.3199 33.0525 37.7015 32.1547 37.6439L33.684 35.2041L31.7662 37.352C31.4609 36.5057 31.5746 35.527 32.1554 34.754C32.7967 33.9006 33.8372 33.5243 34.822 33.6894Z" fill="white"/>
<path fill-rule="evenodd" clip-rule="evenodd" d="M27.5141 33.0159C28.3773 33.0219 29.2072 33.4973 29.6261 34.3195C30.0056 35.0641 29.9566 35.9144 29.5707 36.5895L28.2576 34.475L29.1965 36.7802C28.4234 36.6956 27.7068 36.2354 27.3273 35.4908C26.9084 34.6686 27.0117 33.7177 27.5141 33.0159Z" fill="white"/>
<path fill-rule="evenodd" clip-rule="evenodd" d="M23.3351 26.8079C24.7009 26.3721 26.255 26.6988 27.3382 27.7882C28.3193 28.775 28.6782 30.1504 28.4152 31.4215L25.2574 28.7413L27.9221 31.9174C26.6583 32.182 25.2908 31.821 24.3099 30.8343C23.2266 29.7448 22.9019 28.1816 23.3351 26.8079Z" fill="white"/>
<path fill-rule="evenodd" clip-rule="evenodd" d="M20.23 33.3046C21.0484 32.4083 22.326 31.9883 23.5793 32.3242C24.7144 32.6284 25.5567 33.4794 25.8991 34.5178L22.4542 33.9005L25.7462 35.0884C24.9305 35.8165 23.7755 36.1324 22.6403 35.8282C21.387 35.4924 20.4906 34.4899 20.23 33.3046Z" fill="white"/>
<path fill-rule="evenodd" clip-rule="evenodd" d="M14.8591 34.8986C14.8084 36.024 15.3681 37.1383 16.4052 37.7405C17.3444 38.286 18.4496 38.2803 19.3508 37.8234L16.6997 35.9673L19.6234 37.3485C19.5662 36.3351 19.0186 35.3696 18.0793 34.8241C17.0422 34.2219 15.8029 34.2915 14.8591 34.8986Z" fill="white"/>
<path fill-rule="evenodd" clip-rule="evenodd" d="M18.4894 26.9371C18.1507 28.0109 18.4046 29.233 19.2514 30.0847C20.0184 30.8561 21.0873 31.1383 22.0753 30.9315L19.9921 28.4486L22.4608 30.5438C22.6664 29.55 22.3858 28.4748 21.6188 27.7035C20.7721 26.8517 19.5571 26.5964 18.4894 26.9371Z" fill="white"/>
<path fill-rule="evenodd" clip-rule="evenodd" d="M26.4217 21.2637C25.5946 22.0234 25.207 23.2094 25.5169 24.3728C25.7976 25.4265 26.5831 26.2085 27.5415 26.5264L26.9717 23.3283L28.0681 26.3844C28.7403 25.6271 29.0316 24.5549 28.7509 23.5012C28.441 22.3377 27.5158 21.5056 26.4217 21.2637Z" fill="white"/>
<path fill-rule="evenodd" clip-rule="evenodd" d="M13.295 28.1296C12.8585 29.5137 13.1857 31.0887 14.2771 32.1864C15.2656 33.1806 16.6433 33.5443 17.9167 33.2778L15.2319 30.0776L18.4136 32.7782C18.6785 31.4973 18.3169 30.1116 17.3285 29.1173C16.237 28.0196 14.6711 27.6906 13.295 28.1296Z" fill="white"/>
<path fill-rule="evenodd" clip-rule="evenodd" d="M18.6265 20.9206C18.19 22.3047 18.5173 23.8797 19.6086 24.9774C20.5971 25.9716 21.9748 26.3354 23.2482 26.0689L20.5634 22.8686L23.7451 25.5692C24.01 24.2883 23.6484 22.9026 22.66 21.9084C21.5686 20.8107 20.0026 20.4816 18.6265 20.9206Z" fill="white"/>
<path fill-rule="evenodd" clip-rule="evenodd" d="M14.5055 23.6434C14.2318 24.5112 14.437 25.4988 15.1213 26.1871C15.741 26.8105 16.605 27.0386 17.4034 26.8715L15.72 24.8648L17.715 26.5581C17.8811 25.7551 17.6544 24.8861 17.0345 24.2627C16.3503 23.5744 15.3683 23.3682 14.5055 23.6434Z" fill="white"/>
<path fill-rule="evenodd" clip-rule="evenodd" d="M23.9366 19.207C23.4675 19.6378 23.2478 20.3103 23.4236 20.97C23.5826 21.5674 24.028 22.0108 24.5714 22.191L24.2485 20.3778L24.8701 22.1105C25.2511 21.6811 25.4164 21.0732 25.2572 20.4758C25.0814 19.8161 24.5568 19.3442 23.9366 19.207Z" fill="white"/>
<path fill-rule="evenodd" clip-rule="evenodd" d="M29.333 19.6465C28.8641 20.0771 28.6443 20.7496 28.8201 21.4093C28.9792 22.0068 29.4246 22.4501 29.9679 22.6303L29.645 20.8171L30.2666 22.5498C30.6476 22.1205 30.8129 21.5126 30.6538 20.9151C30.478 20.2554 29.9533 19.7836 29.333 19.6465Z" fill="white"/>
<path fill-rule="evenodd" clip-rule="evenodd" d="M26.8446 16.1152C27.6482 16.5343 28.1974 17.3785 28.1974 18.3518C28.1974 19.2334 27.747 20.0091 27.0648 20.4589L26.8446 17.8427L26.6243 20.4589C25.9422 20.0091 25.4917 19.2334 25.4917 18.3518C25.4917 17.3785 26.0409 16.5343 26.8446 16.1152Z" fill="white"/>
<path fill-rule="evenodd" clip-rule="evenodd" d="M11.8236 35.0417C12.3586 35.3859 13.0613 35.4254 13.6493 35.0839C14.1818 34.7746 14.4924 34.2271 14.5248 33.6526L12.8671 34.4357L14.3703 33.3833C13.8593 33.1242 13.2327 33.1211 12.7002 33.4303C12.1121 33.7718 11.7948 34.4036 11.8236 35.0417Z" fill="white"/>
<path fill-rule="evenodd" clip-rule="evenodd" d="M39.3724 26.8079C38.0067 26.3721 36.4525 26.6988 35.3694 27.7882C34.3883 28.775 34.0294 30.1504 34.2924 31.4215L37.4502 28.7413L34.7855 31.9174C36.0494 32.182 37.4167 31.821 38.3978 30.8343C39.481 29.7448 39.8057 28.1816 39.3724 26.8079Z" fill="white"/>
<path fill-rule="evenodd" clip-rule="evenodd" d="M47.8487 34.8986C47.8995 36.024 47.3398 37.1383 46.3027 37.7405C45.3634 38.286 44.2583 38.2803 43.3571 37.8234L46.0082 35.9673L43.0845 37.3485C43.1416 36.3351 43.6893 35.3696 44.6287 34.8241C45.6657 34.2219 46.9051 34.2915 47.8487 34.8986Z" fill="white"/>
<path fill-rule="evenodd" clip-rule="evenodd" d="M44.2186 26.9371C44.5574 28.0109 44.3035 29.233 43.4568 30.0847C42.6898 30.8561 41.6209 31.1383 40.6328 30.9315L42.7159 28.4486L40.2473 30.5438C40.0417 29.55 40.3223 28.4748 41.0893 27.7035C41.936 26.8517 43.151 26.5964 44.2186 26.9371Z" fill="white"/>
<path fill-rule="evenodd" clip-rule="evenodd" d="M36.2866 21.2637C37.1138 22.0234 37.5013 23.2094 37.1914 24.3728C36.9108 25.4265 36.1252 26.2085 35.1668 26.5264L35.7366 23.3283L34.6402 26.3844C33.9682 25.6271 33.6767 24.5549 33.9573 23.5012C34.2674 22.3377 35.1926 21.5056 36.2866 21.2637Z" fill="white"/>
<path fill-rule="evenodd" clip-rule="evenodd" d="M49.4131 28.1296C49.8496 29.5137 49.5223 31.0887 48.431 32.1864C47.4424 33.1806 46.0648 33.5443 44.7914 33.2778L47.4762 30.0776L44.2944 32.7782C44.0296 31.4973 44.3912 30.1116 45.3796 29.1173C46.471 28.0196 48.0369 27.6906 49.4131 28.1296Z" fill="white"/>
<path fill-rule="evenodd" clip-rule="evenodd" d="M44.0816 20.9206C44.5181 22.3047 44.1908 23.8797 43.0994 24.9774C42.111 25.9716 40.7333 26.3354 39.4599 26.0689L42.1448 22.8686L38.9629 25.5692C38.698 24.2883 39.0596 22.9026 40.0481 21.9084C41.1395 20.8107 42.7054 20.4816 44.0816 20.9206Z" fill="white"/>
<path fill-rule="evenodd" clip-rule="evenodd" d="M48.2026 23.6434C48.4762 24.5112 48.2711 25.4988 47.5868 26.1871C46.967 26.8105 46.1031 27.0386 45.3046 26.8715L46.9882 24.8648L44.9931 26.5581C44.8269 25.7551 45.0537 24.8861 45.6735 24.2627C46.3579 23.5744 47.3397 23.3682 48.2026 23.6434Z" fill="white"/>
<path fill-rule="evenodd" clip-rule="evenodd" d="M38.7716 19.207C39.2406 19.6378 39.4603 20.3103 39.2846 20.97C39.1255 21.5674 38.6801 22.0108 38.1367 22.191L38.4596 20.3778L37.838 22.1105C37.457 21.6811 37.2917 21.0732 37.4509 20.4758C37.6266 19.8161 38.1513 19.3442 38.7716 19.207Z" fill="white"/>
<path fill-rule="evenodd" clip-rule="evenodd" d="M33.3756 19.6465C33.8446 20.0771 34.0643 20.7496 33.8886 21.4093C33.7295 22.0068 33.2841 22.4501 32.7407 22.6303L33.0637 20.8171L32.4421 22.5498C32.061 22.1205 31.8957 21.5126 32.0549 20.9151C32.2307 20.2554 32.7553 19.7836 33.3756 19.6465Z" fill="white"/>
<path fill-rule="evenodd" clip-rule="evenodd" d="M35.8636 16.1152C35.0599 16.5343 34.5107 17.3785 34.5107 18.3518C34.5107 19.2334 34.9613 20.0091 35.6433 20.4589L35.8636 17.8427L36.084 20.4589C36.766 20.0091 37.2165 19.2334 37.2165 18.3518C37.2165 17.3785 36.6672 16.5343 35.8636 16.1152Z" fill="white"/>
<path fill-rule="evenodd" clip-rule="evenodd" d="M50.8848 35.0417C50.3498 35.3859 49.6472 35.4254 49.0591 35.0839C48.5266 34.7746 48.2161 34.2271 48.1836 33.6526L49.8413 34.4357L48.3381 33.3833C48.8491 33.1242 49.4757 33.1211 50.0083 33.4303C50.5963 33.7718 50.9137 34.4036 50.8848 35.0417Z" fill="white"/>
<path fill-rule="evenodd" clip-rule="evenodd" d="M47.3013 40.7995C46.7663 41.1437 46.0636 41.1831 45.4756 40.8417C44.943 40.5324 44.6325 39.985 44.6001 39.4104L46.2578 40.1935L44.7546 39.1412C45.2656 38.8821 45.8922 38.8788 46.4248 39.1881C47.0128 39.5295 47.3302 40.1614 47.3013 40.7995Z" fill="white"/>
<path fill-rule="evenodd" clip-rule="evenodd" d="M31.3539 12.0078C32.626 12.671 33.4953 14.0074 33.4953 15.548C33.4953 16.9435 32.7822 18.1712 31.7025 18.8832L31.3539 14.7421L31.0052 18.8832C29.9256 18.1712 29.2124 16.9435 29.2124 15.548C29.2124 14.0074 30.0818 12.671 31.3539 12.0078Z" fill="white"/>
<path fill-rule="evenodd" clip-rule="evenodd" d="M42.7039 32.5418C41.8403 31.5905 40.492 31.1447 39.1694 31.5012C37.9715 31.824 37.0825 32.7274 36.7212 33.8296L40.3567 33.1744L36.8825 34.4352C37.7434 35.2081 38.9624 35.5434 40.1602 35.2204C41.4828 34.8641 42.4288 33.8 42.7039 32.5418Z" fill="white"/>
<path fill-rule="evenodd" clip-rule="evenodd" d="M41.9714 36.3529C41.7169 36.8467 41.2041 37.1843 40.6129 37.1843C40.0774 37.1843 39.6062 36.9074 39.333 36.4883L40.9222 36.3529L39.333 36.2175C39.6062 35.7984 40.0774 35.5215 40.6129 35.5215C41.2041 35.5215 41.7169 35.859 41.9714 36.3529Z" fill="white"/>
<path fill-rule="evenodd" clip-rule="evenodd" d="M43.9647 33.7068C44.1319 34.2371 44.0066 34.8405 43.5885 35.261C43.2099 35.6418 42.6821 35.7812 42.1942 35.6791L43.2227 34.4531L42.0039 35.4876C41.9024 34.997 42.0409 34.4661 42.4195 34.0853C42.8376 33.6647 43.4376 33.5387 43.9647 33.7068Z" fill="white"/>
<path fill-rule="evenodd" clip-rule="evenodd" d="M31.9846 30.6398C32.4541 30.9339 32.7483 31.4747 32.7019 32.0675C32.6597 32.6045 32.3483 33.0551 31.9114 33.2961L31.9021 31.692L31.643 33.2748C31.2491 32.9679 31.0116 32.4738 31.0538 31.9368C31.1002 31.344 31.4752 30.8563 31.9846 30.6398Z" fill="white"/>
<path fill-rule="evenodd" clip-rule="evenodd" d="M14.5446 55.2604L13.6257 55.5809L13.7259 54.6079C14.0363 51.5967 14.3466 48.5855 14.6569 45.5742L12.2012 57.993C12.2012 57.993 17.2838 53.9198 25.2517 54.7947C21.7536 53.911 18.0267 54.0461 14.5446 55.2604Z" fill="white"/>
<path fill-rule="evenodd" clip-rule="evenodd" d="M29.8535 55.9265C25.1093 53.3563 19.4833 52.8805 14.3418 54.6736C14.7623 50.5928 15.1829 46.5121 15.6033 42.4313C18.8389 41.3055 22.2394 40.8091 25.6263 40.9488H25.6257C26.5004 42.3648 27.116 44.0057 27.565 45.8856C28.0142 47.766 28.3792 49.6634 28.7824 51.5537C29.0976 53.0309 29.4391 54.4873 29.8533 55.9264L29.8535 55.9265ZM37.3303 40.9403C40.6407 40.832 43.9603 41.331 47.1224 42.4313C47.5429 46.5122 47.9634 50.5929 48.384 54.6736C43.06 52.8169 37.2166 53.3929 32.3706 56.208C32.5207 55.2557 32.6759 54.3042 32.8598 53.3528C33.3371 50.8845 33.9629 48.4655 34.7537 46.0795C35.3555 44.2642 36.2084 42.4968 37.3303 40.9403Z" fill="white"/>
<path fill-rule="evenodd" clip-rule="evenodd" d="M48.1812 55.2604L49.1002 55.5809L48.9999 54.6079C48.6896 51.5967 48.3793 48.5855 48.0691 45.5742L50.5247 57.993C50.5247 57.993 45.4419 53.9198 37.4741 54.7947C40.9723 53.911 44.6993 54.0461 48.1812 55.2604Z" fill="white"/>
<path fill-rule="evenodd" clip-rule="evenodd" d="M31.3629 57.9937C29.7418 53.6456 29.2277 49.6096 28.1857 45.2463C27.2786 41.4495 25.5255 37.4489 20.2217 35.1151C20.2217 35.1151 25.5122 34.5009 30.7651 38.7296C30.7651 38.7296 33.6839 37.4498 39.2545 37.4498C39.2545 37.4498 36.0051 39.7843 34.1481 45.3872C32.2913 50.9901 31.827 55.1922 31.3629 57.9937Z" fill="white"/>
<mask id="path-38-inside-1_12_2313" fill="white">
<path d="M47.1435 50.1347C51.1024 46.9284 53.979 42.5818 55.383 37.6847C56.7869 32.7875 56.6503 27.577 54.9915 22.7602C53.3328 17.9434 50.2323 13.7535 46.1108 10.7591C41.9893 7.76476 37.0463 6.11089 31.9527 6.02195C26.859 5.93302 21.8613 7.41332 17.6378 10.262C13.4143 13.1106 10.1694 17.1897 8.34353 21.9457C6.51766 26.7017 6.19918 31.9042 7.43133 36.8474C8.66348 41.7906 11.3866 46.235 15.2311 49.5775L16.1245 48.55C12.4909 45.3908 9.91711 41.1901 8.75255 36.5181C7.58798 31.846 7.88898 26.9288 9.61471 22.4337C11.3404 17.9386 14.4073 14.0833 18.3992 11.3909C22.3911 8.69844 27.1146 7.29933 31.9289 7.38338C36.7432 7.46744 41.415 9.0306 45.3104 11.8607C49.2059 14.6909 52.1363 18.6509 53.7041 23.2035C55.2718 27.7561 55.401 32.6809 54.0741 37.3094C52.7471 41.9379 50.0283 46.0462 46.2865 49.0766L47.1435 50.1347Z"/>
</mask>
<path d="M47.1435 50.1347C51.1024 46.9284 53.979 42.5818 55.383 37.6847C56.7869 32.7875 56.6503 27.577 54.9915 22.7602C53.3328 17.9434 50.2323 13.7535 46.1108 10.7591C41.9893 7.76476 37.0463 6.11089 31.9527 6.02195C26.859 5.93302 21.8613 7.41332 17.6378 10.262C13.4143 13.1106 10.1694 17.1897 8.34353 21.9457C6.51766 26.7017 6.19918 31.9042 7.43133 36.8474C8.66348 41.7906 11.3866 46.235 15.2311 49.5775L16.1245 48.55C12.4909 45.3908 9.91711 41.1901 8.75255 36.5181C7.58798 31.846 7.88898 26.9288 9.61471 22.4337C11.3404 17.9386 14.4073 14.0833 18.3992 11.3909C22.3911 8.69844 27.1146 7.29933 31.9289 7.38338C36.7432 7.46744 41.415 9.0306 45.3104 11.8607C49.2059 14.6909 52.1363 18.6509 53.7041 23.2035C55.2718 27.7561 55.401 32.6809 54.0741 37.3094C52.7471 41.9379 50.0283 46.0462 46.2865 49.0766L47.1435 50.1347Z" stroke="white" stroke-width="2.39906" mask="url(#path-38-inside-1_12_2313)"/>
</svg>
